<svg xmlns="http://www.w3.org/2000/svg" viewBox="0 0 64 64" id="sun"><g data-name="Layer 2"><path d="M32 50A18 18 0 1 1 50 32 18 18 0 0 1 32 50zm0-34A16 16 0 1 0 48 32 16 16 0 0 0 32 16zM32 62a1 1 0 0 1-1-1V54a1 1 0 0 1 2 0v7A1 1 0 0 1 32 62zM32 11a1 1 0 0 1-1-1V3a1 1 0 0 1 2 0v7A1 1 0 0 1 32 11zM52.51 53.51a1 1 0 0 1-.71-.29l-4.95-4.95a1 1 0 0 1 1.41-1.41l4.95 4.95a1 1 0 0 1-.71 1.71zM16.44 17.44a1 1 0 0 1-.71-.29L10.79 12.2a1 1 0 0 1 1.41-1.41l4.95 4.95a1 1 0 0 1-.71 1.71zM61 33H54a1 1 0 0 1 0-2h7a1 1 0 0 1 0 2zM10 33H3a1 1 0 0 1 0-2h7a1 1 0 0 1 0 2zM47.56 17.44a1 1 0 0 1-.71-1.71l4.95-4.95a1 1 0 0 1 1.41 1.41l-4.95 4.95A1 1 0 0 1 47.56 17.44zM11.49 53.51a1 1 0 0 1-.71-1.71l4.95-4.95a1 1 0 0 1 1.41 1.41L12.2 53.21A1 1 0 0 1 11.49 53.51z"></path></g></svg>